<?xml version="1.0" encoding="UTF-8" standalone="no"?>
<!DOCTYPE svg PUBLIC "-//W3C//DTD SVG 1.1//EN"
 "http://www.w3.org/Graphics/SVG/1.1/DTD/svg11.dtd">
<!-- Generated by graphviz version 2.40.1 (20161225.0304)
 -->
<!-- Title: dependencies Pages: 1 -->
<svg width="1951pt" height="360pt"
 viewBox="0.00 0.00 1951.00 360.00" xmlns="http://www.w3.org/2000/svg" xmlns:xlink="http://www.w3.org/1999/xlink">
<g id="graph0" class="graph" transform="scale(1 1) rotate(0) translate(4 356)">
<title>dependencies</title>
<polygon fill="#ffffff" stroke="transparent" points="-4,4 -4,-356 1947,-356 1947,4 -4,4"/>
<text text-anchor="start" x="950.5091" y="-42.4" font-family="sans-serif" font-weight="bold" font-size="14.00" fill="#000000">Legend</text>
<polygon fill="#ffffb3" stroke="transparent" points="737.5,-10 737.5,-30 757.5,-30 757.5,-10 737.5,-10"/>
<text text-anchor="start" x="761.129" y="-15.4" font-family="sans-serif" font-size="14.00" fill="#000000"> &#160;Declarations</text>
<polygon fill="#8dd3c7" stroke="transparent" points="850.5,-10 850.5,-30 870.5,-30 870.5,-10 850.5,-10"/>
<text text-anchor="start" x="874.2251" y="-15.4" font-family="sans-serif" font-size="14.00" fill="#000000"> &#160;Module</text>
<polygon fill="#80b1d3" stroke="transparent" points="936.5,-10 936.5,-30 956.5,-30 956.5,-10 936.5,-10"/>
<text text-anchor="start" x="960.2812" y="-15.4" font-family="sans-serif" font-size="14.00" fill="#000000"> &#160;Bootstrap</text>
<polygon fill="#fdb462" stroke="transparent" points="1033.5,-10 1033.5,-30 1053.5,-30 1053.5,-10 1033.5,-10"/>
<text text-anchor="start" x="1057.1732" y="-15.4" font-family="sans-serif" font-size="14.00" fill="#000000"> &#160;Providers</text>
<polygon fill="#fb8072" stroke="transparent" points="1129.5,-10 1129.5,-30 1149.5,-30 1149.5,-10 1129.5,-10"/>
<text text-anchor="start" x="1153.2258" y="-15.4" font-family="sans-serif" font-size="14.00" fill="#000000"> &#160;Exports</text>
<g id="clust1" class="cluster">
<title>cluster_AppModule</title>
<polygon fill="none" stroke="#000000" stroke-dasharray="1,5" points="922,-146 922,-344 1410,-344 1410,-146 922,-146"/>
</g>
<g id="clust2" class="cluster">
<title>cluster_AppModule_declarations</title>
<polygon fill="none" stroke="#000000" points="1280,-154 1280,-206 1402,-206 1402,-154 1280,-154"/>
</g>
<g id="clust4" class="cluster">
<title>cluster_AppModule_imports</title>
<polygon fill="none" stroke="#000000" points="930,-154 930,-206 1272,-206 1272,-154 930,-154"/>
</g>
<g id="clust6" class="cluster">
<title>cluster_AppModule_bootstrap</title>
<polygon fill="none" stroke="#000000" points="1090,-284 1090,-336 1214,-336 1214,-284 1090,-284"/>
</g>
<g id="clust8" class="cluster">
<title>cluster_CoreModule</title>
<polygon fill="none" stroke="#000000" stroke-dasharray="1,5" points="8,-70 8,-138 1009,-138 1009,-70 8,-70"/>
</g>
<g id="clust9" class="cluster">
<title>cluster_CoreModule_declarations</title>
<polygon fill="none" stroke="#000000" points="686,-78 686,-130 1001,-130 1001,-78 686,-78"/>
</g>
<g id="clust12" class="cluster">
<title>cluster_CoreModule_imports</title>
<polygon fill="none" stroke="#000000" points="530,-78 530,-130 678,-130 678,-78 530,-78"/>
</g>
<g id="clust13" class="cluster">
<title>cluster_CoreModule_exports</title>
<polygon fill="none" stroke="#000000" points="200,-78 200,-130 522,-130 522,-78 200,-78"/>
</g>
<g id="clust15" class="cluster">
<title>cluster_CoreModule_providers</title>
<polygon fill="none" stroke="#000000" points="16,-78 16,-130 192,-130 192,-78 16,-78"/>
</g>
<g id="clust28" class="cluster">
<title>cluster_ItemsModule</title>
<polygon fill="none" stroke="#000000" stroke-dasharray="1,5" points="464,-146 464,-344 914,-344 914,-146 464,-146"/>
</g>
<g id="clust29" class="cluster">
<title>cluster_ItemsModule_declarations</title>
<polygon fill="none" stroke="#000000" points="626,-154 626,-206 906,-206 906,-154 626,-154"/>
</g>
<g id="clust32" class="cluster">
<title>cluster_ItemsModule_imports</title>
<polygon fill="none" stroke="#000000" points="472,-154 472,-206 618,-206 618,-154 472,-154"/>
</g>
<g id="clust33" class="cluster">
<title>cluster_ItemsModule_exports</title>
<polygon fill="none" stroke="#000000" points="676,-284 676,-336 836,-336 836,-284 676,-284"/>
</g>
<g id="clust42" class="cluster">
<title>cluster_SharedModule</title>
<polygon fill="none" stroke="#000000" stroke-dasharray="1,5" points="1017,-70 1017,-138 1935,-138 1935,-70 1017,-70"/>
</g>
<g id="clust43" class="cluster">
<title>cluster_SharedModule_declarations</title>
<polygon fill="none" stroke="#000000" points="1417,-78 1417,-130 1927,-130 1927,-78 1417,-78"/>
</g>
<g id="clust49" class="cluster">
<title>cluster_SharedModule_exports</title>
<polygon fill="none" stroke="#000000" points="1025,-78 1025,-130 1409,-130 1409,-78 1025,-78"/>
</g>
<!-- AppComponent -->
<g id="node1" class="node">
<title>AppComponent</title>
<polygon fill="#ffffb3" stroke="#000000" points="1393.9399,-198 1288.0601,-198 1288.0601,-162 1393.9399,-162 1393.9399,-198"/>
<text text-anchor="middle" x="1341" y="-175.8" font-family="Times,serif" font-size="14.00" fill="#000000">AppComponent</text>
</g>
<!-- AppModule -->
<g id="node2" class="node">
<title>AppModule</title>
<polygon fill="#8dd3c7" stroke="#000000" points="1193.6571,-263 1190.6571,-267 1169.6571,-267 1166.6571,-263 1110.3429,-263 1110.3429,-227 1193.6571,-227 1193.6571,-263"/>
<text text-anchor="middle" x="1152" y="-240.8" font-family="Times,serif" font-size="14.00" fill="#000000">AppModule</text>
</g>
<!-- AppComponent&#45;&gt;AppModule -->
<g id="edge1" class="edge">
<title>AppComponent&#45;&gt;AppModule</title>
<path fill="none" stroke="#000000" d="M1341,-198.1061C1341,-217.3391 1341,-245 1341,-245 1341,-245 1203.9452,-245 1203.9452,-245"/>
<polygon fill="#000000" stroke="#000000" points="1203.9453,-241.5001 1193.9452,-245 1203.9452,-248.5001 1203.9453,-241.5001"/>
</g>
<!-- AppComponent  -->
<g id="node6" class="node">
<title>AppComponent </title>
<polygon fill="#80b1d3" stroke="#000000" points="1206.439,-328 1097.561,-328 1097.561,-292 1206.439,-292 1206.439,-328"/>
<text text-anchor="middle" x="1152" y="-305.8" font-family="Times,serif" font-size="14.00" fill="#000000">AppComponent </text>
</g>
<!-- AppModule&#45;&gt;AppComponent  -->
<g id="edge5" class="edge">
<title>AppModule&#45;&gt;AppComponent </title>
<path fill="none" stroke="#000000" stroke-dasharray="1,5" d="M1152,-263.1061C1152,-263.1061 1152,-281.991 1152,-281.991"/>
<polygon fill="#000000" stroke="#000000" points="1148.5001,-281.9909 1152,-291.991 1155.5001,-281.991 1148.5001,-281.9909"/>
</g>
<!-- RoutingModule -->
<g id="node3" class="node">
<title>RoutingModule</title>
<polygon fill="#8dd3c7" stroke="#000000" points="1264.1681,-198 1261.1681,-202 1240.1681,-202 1237.1681,-198 1159.8319,-198 1159.8319,-162 1264.1681,-162 1264.1681,-198"/>
<text text-anchor="middle" x="1212" y="-175.8" font-family="Times,serif" font-size="14.00" fill="#000000">RoutingModule</text>
</g>
<!-- RoutingModule&#45;&gt;AppModule -->
<g id="edge2" class="edge">
<title>RoutingModule&#45;&gt;AppModule</title>
<path fill="none" stroke="#000000" d="M1176.7472,-198.1061C1176.7472,-198.1061 1176.7472,-216.991 1176.7472,-216.991"/>
<polygon fill="#000000" stroke="#000000" points="1173.2473,-216.9909 1176.7472,-226.991 1180.2473,-216.991 1173.2473,-216.9909"/>
</g>
<!-- CoreModule -->
<g id="node4" class="node">
<title>CoreModule</title>
<polygon fill="#8dd3c7" stroke="#000000" points="1024.2619,-198 1021.2619,-202 1000.2619,-202 997.2619,-198 937.7381,-198 937.7381,-162 1024.2619,-162 1024.2619,-198"/>
<text text-anchor="middle" x="981" y="-175.8" font-family="Times,serif" font-size="14.00" fill="#000000">CoreModule</text>
</g>
<!-- CoreModule&#45;&gt;AppModule -->
<g id="edge3" class="edge">
<title>CoreModule&#45;&gt;AppModule</title>
<path fill="none" stroke="#000000" d="M981,-198.2843C981,-219.3211 981,-251 981,-251 981,-251 1100.1687,-251 1100.1687,-251"/>
<polygon fill="#000000" stroke="#000000" points="1100.1687,-254.5001 1110.1687,-251 1100.1687,-247.5001 1100.1687,-254.5001"/>
</g>
<!-- HomeComponent  -->
<g id="node10" class="node">
<title>HomeComponent </title>
<polygon fill="#fb8072" stroke="#000000" points="513.5442,-122 394.4558,-122 394.4558,-86 513.5442,-86 513.5442,-122"/>
<text text-anchor="middle" x="454" y="-99.8" font-family="Times,serif" font-size="14.00" fill="#000000">HomeComponent </text>
</g>
<!-- CoreModule&#45;&gt;HomeComponent  -->
<g id="edge9" class="edge">
<title>CoreModule&#45;&gt;HomeComponent </title>
<path fill="none" stroke="#000000" stroke-dasharray="5,2" d="M961.2562,-161.793C961.2562,-156.4451 961.2562,-152 961.2562,-152 961.2562,-152 496.6801,-152 496.6801,-152 496.6801,-152 496.6801,-132.1467 496.6801,-132.1467"/>
<polygon fill="#000000" stroke="#000000" points="500.1801,-132.1467 496.6801,-122.1467 493.1801,-132.1468 500.1801,-132.1467"/>
</g>
<!-- PageNotFoundComponent  -->
<g id="node11" class="node">
<title>PageNotFoundComponent </title>
<polygon fill="#fb8072" stroke="#000000" points="376.3241,-122 207.6759,-122 207.6759,-86 376.3241,-86 376.3241,-122"/>
<text text-anchor="middle" x="292" y="-99.8" font-family="Times,serif" font-size="14.00" fill="#000000">PageNotFoundComponent </text>
</g>
<!-- CoreModule&#45;&gt;PageNotFoundComponent  -->
<g id="edge10" class="edge">
<title>CoreModule&#45;&gt;PageNotFoundComponent </title>
<path fill="none" stroke="#000000" stroke-dasharray="5,2" d="M953.3772,-161.8314C953.3772,-157.9541 953.3772,-155 953.3772,-155 953.3772,-155 292,-155 292,-155 292,-155 292,-132.1243 292,-132.1243"/>
<polygon fill="#000000" stroke="#000000" points="295.5001,-132.1243 292,-122.1243 288.5001,-132.1243 295.5001,-132.1243"/>
</g>
<!-- SharedModule -->
<g id="node5" class="node">
<title>SharedModule</title>
<polygon fill="#8dd3c7" stroke="#000000" points="1141.4231,-198 1138.4231,-202 1117.4231,-202 1114.4231,-198 1042.5769,-198 1042.5769,-162 1141.4231,-162 1141.4231,-198"/>
<text text-anchor="middle" x="1092" y="-175.8" font-family="Times,serif" font-size="14.00" fill="#000000">SharedModule</text>
</g>
<!-- SharedModule&#45;&gt;AppModule -->
<g id="edge4" class="edge">
<title>SharedModule&#45;&gt;AppModule</title>
<path fill="none" stroke="#000000" d="M1125.6915,-198.1061C1125.6915,-198.1061 1125.6915,-216.991 1125.6915,-216.991"/>
<polygon fill="#000000" stroke="#000000" points="1122.1915,-216.9909 1125.6915,-226.991 1129.1915,-216.991 1122.1915,-216.9909"/>
</g>
<!-- ItemsModule -->
<g id="node15" class="node">
<title>ItemsModule</title>
<polygon fill="#8dd3c7" stroke="#000000" points="801.1515,-263 798.1515,-267 777.1515,-267 774.1515,-263 710.8485,-263 710.8485,-227 801.1515,-227 801.1515,-263"/>
<text text-anchor="middle" x="756" y="-240.8" font-family="Times,serif" font-size="14.00" fill="#000000">ItemsModule</text>
</g>
<!-- SharedModule&#45;&gt;ItemsModule -->
<g id="edge14" class="edge">
<title>SharedModule&#45;&gt;ItemsModule</title>
<path fill="none" stroke="#000000" d="M1070.1597,-198.0225C1070.1597,-215.3734 1070.1597,-239 1070.1597,-239 1070.1597,-239 811.346,-239 811.346,-239"/>
<polygon fill="#000000" stroke="#000000" points="811.346,-235.5001 801.346,-239 811.346,-242.5001 811.346,-235.5001"/>
</g>
<!-- MenuComponent  -->
<g id="node22" class="node">
<title>MenuComponent </title>
<polygon fill="#fb8072" stroke="#000000" points="1150.9926,-122 1033.0074,-122 1033.0074,-86 1150.9926,-86 1150.9926,-122"/>
<text text-anchor="middle" x="1092" y="-99.8" font-family="Times,serif" font-size="14.00" fill="#000000">MenuComponent </text>
</g>
<!-- SharedModule&#45;&gt;MenuComponent  -->
<g id="edge21" class="edge">
<title>SharedModule&#45;&gt;MenuComponent </title>
<path fill="none" stroke="#000000" stroke-dasharray="5,2" d="M1056.8492,-161.9891C1056.8492,-161.9891 1056.8492,-132.145 1056.8492,-132.145"/>
<polygon fill="#000000" stroke="#000000" points="1060.3493,-132.145 1056.8492,-122.145 1053.3493,-132.1451 1060.3493,-132.145"/>
</g>
<!-- StateDirective  -->
<g id="node23" class="node">
<title>StateDirective </title>
<polygon fill="#fb8072" stroke="#000000" points="1400.5767,-122 1301.4233,-122 1301.4233,-86 1400.5767,-86 1400.5767,-122"/>
<text text-anchor="middle" x="1351" y="-99.8" font-family="Times,serif" font-size="14.00" fill="#000000">StateDirective </text>
</g>
<!-- SharedModule&#45;&gt;StateDirective  -->
<g id="edge22" class="edge">
<title>SharedModule&#45;&gt;StateDirective </title>
<path fill="none" stroke="#000000" stroke-dasharray="5,2" d="M1127.1508,-161.7181C1127.1508,-146.0522 1127.1508,-126 1127.1508,-126 1127.1508,-126 1347.4658,-126 1347.4658,-126 1347.4658,-126 1347.4658,-125.6168 1347.4658,-125.6168"/>
<polygon fill="#000000" stroke="#000000" points="1350.9661,-132.1678 1347.4658,-122.1679 1343.9661,-132.168 1350.9661,-132.1678"/>
</g>
<!-- FormComponent  -->
<g id="node24" class="node">
<title>FormComponent </title>
<polygon fill="#fb8072" stroke="#000000" points="1283.6663,-122 1168.3337,-122 1168.3337,-86 1283.6663,-86 1283.6663,-122"/>
<text text-anchor="middle" x="1226" y="-99.8" font-family="Times,serif" font-size="14.00" fill="#000000">FormComponent </text>
</g>
<!-- SharedModule&#45;&gt;FormComponent  -->
<g id="edge23" class="edge">
<title>SharedModule&#45;&gt;FormComponent </title>
<path fill="none" stroke="#000000" stroke-dasharray="5,2" d="M1141.4912,-180C1149.4878,-180 1155.206,-180 1155.206,-180 1155.206,-180 1155.206,-104 1155.206,-104 1155.206,-104 1158.1907,-104 1158.1907,-104"/>
<polygon fill="#000000" stroke="#000000" points="1158.1907,-107.5001 1168.1907,-104 1158.1907,-100.5001 1158.1907,-107.5001"/>
</g>
<!-- HomeComponent -->
<g id="node7" class="node">
<title>HomeComponent</title>
<polygon fill="#ffffb3" stroke="#000000" points="992.5451,-122 877.4549,-122 877.4549,-86 992.5451,-86 992.5451,-122"/>
<text text-anchor="middle" x="935" y="-99.8" font-family="Times,serif" font-size="14.00" fill="#000000">HomeComponent</text>
</g>
<!-- HomeComponent&#45;&gt;CoreModule -->
<g id="edge6" class="edge">
<title>HomeComponent&#45;&gt;CoreModule</title>
<path fill="none" stroke="#000000" d="M984.8931,-122.0109C984.8931,-122.0109 984.8931,-151.855 984.8931,-151.855"/>
<polygon fill="#000000" stroke="#000000" points="981.3932,-151.8549 984.8931,-161.855 988.3932,-151.855 981.3932,-151.8549"/>
</g>
<!-- PageNotFoundComponent -->
<g id="node8" class="node">
<title>PageNotFoundComponent</title>
<polygon fill="#ffffb3" stroke="#000000" points="859.8243,-122 694.1757,-122 694.1757,-86 859.8243,-86 859.8243,-122"/>
<text text-anchor="middle" x="777" y="-99.8" font-family="Times,serif" font-size="14.00" fill="#000000">PageNotFoundComponent</text>
</g>
<!-- PageNotFoundComponent&#45;&gt;CoreModule -->
<g id="edge7" class="edge">
<title>PageNotFoundComponent&#45;&gt;CoreModule</title>
<path fill="none" stroke="#000000" d="M808.7244,-122.1274C808.7244,-132.7109 808.7244,-144 808.7244,-144 808.7244,-144 977.0141,-144 977.0141,-144 977.0141,-144 977.0141,-151.5782 977.0141,-151.5782"/>
<polygon fill="#000000" stroke="#000000" points="973.5142,-151.5781 977.0141,-161.5782 980.5142,-151.5782 973.5142,-151.5781"/>
</g>
<!-- CoreRoutingModule -->
<g id="node9" class="node">
<title>CoreRoutingModule</title>
<polygon fill="#8dd3c7" stroke="#000000" points="669.8795,-122 666.8795,-126 645.8795,-126 642.8795,-122 538.1205,-122 538.1205,-86 669.8795,-86 669.8795,-122"/>
<text text-anchor="middle" x="604" y="-99.8" font-family="Times,serif" font-size="14.00" fill="#000000">CoreRoutingModule</text>
</g>
<!-- CoreRoutingModule&#45;&gt;CoreModule -->
<g id="edge8" class="edge">
<title>CoreRoutingModule&#45;&gt;CoreModule</title>
<path fill="none" stroke="#000000" d="M652.1101,-122.1505C652.1101,-134.2708 652.1101,-148 652.1101,-148 652.1101,-148 969.1351,-148 969.1351,-148 969.1351,-148 969.1351,-151.7566 969.1351,-151.7566"/>
<polygon fill="#000000" stroke="#000000" points="965.6352,-151.7566 969.1351,-161.7566 972.6352,-151.7566 965.6352,-151.7566"/>
</g>
<!-- CollectionService -->
<g id="node12" class="node">
<title>CollectionService</title>
<ellipse fill="#fdb462" stroke="#000000" cx="104" cy="-104" rx="80.4519" ry="18"/>
<text text-anchor="middle" x="104" y="-99.8" font-family="Times,serif" font-size="14.00" fill="#000000">CollectionService</text>
</g>
<!-- CollectionService&#45;&gt;CoreModule -->
<g id="edge11" class="edge">
<title>CollectionService&#45;&gt;CoreModule</title>
<path fill="none" stroke="#000000" d="M104,-122.0091C104,-138.0494 104,-159 104,-159 104,-159 945.4982,-159 945.4982,-159 945.4982,-159 945.4982,-159.292 945.4982,-159.292"/>
<polygon fill="#000000" stroke="#000000" points="941.9986,-151.9198 945.4982,-161.92 948.9986,-151.9201 941.9986,-151.9198"/>
</g>
<!-- ListeItemsComponent -->
<g id="node13" class="node">
<title>ListeItemsComponent</title>
<polygon fill="#ffffb3" stroke="#000000" points="898.427,-198 757.573,-198 757.573,-162 898.427,-162 898.427,-198"/>
<text text-anchor="middle" x="828" y="-175.8" font-family="Times,serif" font-size="14.00" fill="#000000">ListeItemsComponent</text>
</g>
<!-- ListeItemsComponent&#45;&gt;ItemsModule -->
<g id="edge12" class="edge">
<title>ListeItemsComponent&#45;&gt;ItemsModule</title>
<path fill="none" stroke="#000000" d="M779.5561,-198.1061C779.5561,-198.1061 779.5561,-216.991 779.5561,-216.991"/>
<polygon fill="#000000" stroke="#000000" points="776.0562,-216.9909 779.5561,-226.991 783.0562,-216.991 776.0562,-216.9909"/>
</g>
<!-- AddComponent -->
<g id="node14" class="node">
<title>AddComponent</title>
<polygon fill="#ffffb3" stroke="#000000" points="739.9399,-198 634.0601,-198 634.0601,-162 739.9399,-162 739.9399,-198"/>
<text text-anchor="middle" x="687" y="-175.8" font-family="Times,serif" font-size="14.00" fill="#000000">AddComponent</text>
</g>
<!-- AddComponent&#45;&gt;ItemsModule -->
<g id="edge13" class="edge">
<title>AddComponent&#45;&gt;ItemsModule</title>
<path fill="none" stroke="#000000" d="M725.1971,-198.1061C725.1971,-198.1061 725.1971,-216.991 725.1971,-216.991"/>
<polygon fill="#000000" stroke="#000000" points="721.6971,-216.9909 725.1971,-226.991 728.6971,-216.991 721.6971,-216.9909"/>
</g>
<!-- ListeItemsComponent  -->
<g id="node17" class="node">
<title>ListeItemsComponent </title>
<polygon fill="#fb8072" stroke="#000000" points="827.9264,-328 684.0736,-328 684.0736,-292 827.9264,-292 827.9264,-328"/>
<text text-anchor="middle" x="756" y="-305.8" font-family="Times,serif" font-size="14.00" fill="#000000">ListeItemsComponent </text>
</g>
<!-- ItemsModule&#45;&gt;ListeItemsComponent  -->
<g id="edge16" class="edge">
<title>ItemsModule&#45;&gt;ListeItemsComponent </title>
<path fill="none" stroke="#000000" stroke-dasharray="5,2" d="M756,-263.1061C756,-263.1061 756,-281.991 756,-281.991"/>
<polygon fill="#000000" stroke="#000000" points="752.5001,-281.9909 756,-291.991 759.5001,-281.991 752.5001,-281.9909"/>
</g>
<!-- ItemRoutingModule -->
<g id="node16" class="node">
<title>ItemRoutingModule</title>
<polygon fill="#8dd3c7" stroke="#000000" points="610.3244,-198 607.3244,-202 586.3244,-202 583.3244,-198 479.6756,-198 479.6756,-162 610.3244,-162 610.3244,-198"/>
<text text-anchor="middle" x="545" y="-175.8" font-family="Times,serif" font-size="14.00" fill="#000000">ItemRoutingModule</text>
</g>
<!-- ItemRoutingModule&#45;&gt;ItemsModule -->
<g id="edge15" class="edge">
<title>ItemRoutingModule&#45;&gt;ItemsModule</title>
<path fill="none" stroke="#000000" d="M545,-198.1061C545,-217.3391 545,-245 545,-245 545,-245 700.7352,-245 700.7352,-245"/>
<polygon fill="#000000" stroke="#000000" points="700.7352,-248.5001 710.7352,-245 700.7352,-241.5001 700.7352,-248.5001"/>
</g>
<!-- MenuComponent -->
<g id="node18" class="node">
<title>MenuComponent</title>
<polygon fill="#ffffb3" stroke="#000000" points="1652.9916,-122 1539.0084,-122 1539.0084,-86 1652.9916,-86 1652.9916,-122"/>
<text text-anchor="middle" x="1596" y="-99.8" font-family="Times,serif" font-size="14.00" fill="#000000">MenuComponent</text>
</g>
<!-- MenuComponent&#45;&gt;SharedModule -->
<g id="edge17" class="edge">
<title>MenuComponent&#45;&gt;SharedModule</title>
<path fill="none" stroke="#000000" d="M1596,-122.2015C1596,-128.028 1596,-133 1596,-133 1596,-133 1084.9698,-133 1084.9698,-133 1084.9698,-133 1084.9698,-151.963 1084.9698,-151.963"/>
<polygon fill="#000000" stroke="#000000" points="1081.4699,-151.963 1084.9698,-161.963 1088.4699,-151.963 1081.4699,-151.963"/>
</g>
<!-- StateDirective -->
<g id="node19" class="node">
<title>StateDirective</title>
<polygon fill="#ffffb3" stroke="#000000" points="1521.0758,-122 1424.9242,-122 1424.9242,-86 1521.0758,-86 1521.0758,-122"/>
<text text-anchor="middle" x="1473" y="-99.8" font-family="Times,serif" font-size="14.00" fill="#000000">StateDirective</text>
</g>
<!-- StateDirective&#45;&gt;SharedModule -->
<g id="edge18" class="edge">
<title>StateDirective&#45;&gt;SharedModule</title>
<path fill="none" stroke="#000000" d="M1473,-122.0579C1473,-126.4945 1473,-130 1473,-130 1473,-130 1070.9095,-130 1070.9095,-130 1070.9095,-130 1070.9095,-151.9489 1070.9095,-151.9489"/>
<polygon fill="#000000" stroke="#000000" points="1067.4096,-151.9488 1070.9095,-161.9489 1074.4096,-151.9489 1067.4096,-151.9488"/>
</g>
<!-- FormComponent -->
<g id="node20" class="node">
<title>FormComponent</title>
<polygon fill="#ffffb3" stroke="#000000" points="1918.6667,-122 1807.3333,-122 1807.3333,-86 1918.6667,-86 1918.6667,-122"/>
<text text-anchor="middle" x="1863" y="-99.8" font-family="Times,serif" font-size="14.00" fill="#000000">FormComponent</text>
</g>
<!-- FormComponent&#45;&gt;SharedModule -->
<g id="edge19" class="edge">
<title>FormComponent&#45;&gt;SharedModule</title>
<path fill="none" stroke="#000000" d="M1863,-122.0664C1863,-131.4587 1863,-141 1863,-141 1863,-141 1113.0905,-141 1113.0905,-141 1113.0905,-141 1113.0905,-151.8701 1113.0905,-151.8701"/>
<polygon fill="#000000" stroke="#000000" points="1109.5906,-151.8701 1113.0905,-161.8701 1116.5906,-151.8701 1109.5906,-151.8701"/>
</g>
<!-- ModalComponent -->
<g id="node21" class="node">
<title>ModalComponent</title>
<polygon fill="#ffffb3" stroke="#000000" points="1788.8823,-122 1671.1177,-122 1671.1177,-86 1788.8823,-86 1788.8823,-122"/>
<text text-anchor="middle" x="1730" y="-99.8" font-family="Times,serif" font-size="14.00" fill="#000000">ModalComponent</text>
</g>
<!-- ModalComponent&#45;&gt;SharedModule -->
<g id="edge20" class="edge">
<title>ModalComponent&#45;&gt;SharedModule</title>
<path fill="none" stroke="#000000" d="M1730,-122.0449C1730,-129.749 1730,-137 1730,-137 1730,-137 1099.0302,-137 1099.0302,-137 1099.0302,-137 1099.0302,-151.5146 1099.0302,-151.5146"/>
<polygon fill="#000000" stroke="#000000" points="1095.5303,-151.5145 1099.0302,-161.5146 1102.5303,-151.5146 1095.5303,-151.5145"/>
</g>
</g>
</svg>
