<?xml version="1.0" encoding="UTF-8" standalone="no"?>
<!DOCTYPE svg PUBLIC "-//W3C//DTD SVG 1.1//EN"
 "http://www.w3.org/Graphics/SVG/1.1/DTD/svg11.dtd">
<!-- Generated by graphviz version 2.40.1 (20161225.0304)
 -->
<!-- Title: dependencies Pages: 1 -->
<svg width="590pt" height="284pt"
 viewBox="0.00 0.00 590.00 284.00" xmlns="http://www.w3.org/2000/svg" xmlns:xlink="http://www.w3.org/1999/xlink">
<g id="graph0" class="graph" transform="scale(1 1) rotate(0) translate(4 280)">
<title>dependencies</title>
<polygon fill="#ffffff" stroke="transparent" points="-4,4 -4,-280 586,-280 586,4 -4,4"/>
<text text-anchor="start" x="270.0091" y="-42.4" font-family="sans-serif" font-weight="bold" font-size="14.00" fill="#000000">Legend</text>
<polygon fill="#ffffb3" stroke="transparent" points="57,-10 57,-30 77,-30 77,-10 57,-10"/>
<text text-anchor="start" x="80.629" y="-15.4" font-family="sans-serif" font-size="14.00" fill="#000000"> &#160;Declarations</text>
<polygon fill="#8dd3c7" stroke="transparent" points="170,-10 170,-30 190,-30 190,-10 170,-10"/>
<text text-anchor="start" x="193.7251" y="-15.4" font-family="sans-serif" font-size="14.00" fill="#000000"> &#160;Module</text>
<polygon fill="#80b1d3" stroke="transparent" points="256,-10 256,-30 276,-30 276,-10 256,-10"/>
<text text-anchor="start" x="279.7812" y="-15.4" font-family="sans-serif" font-size="14.00" fill="#000000"> &#160;Bootstrap</text>
<polygon fill="#fdb462" stroke="transparent" points="353,-10 353,-30 373,-30 373,-10 353,-10"/>
<text text-anchor="start" x="376.6732" y="-15.4" font-family="sans-serif" font-size="14.00" fill="#000000"> &#160;Providers</text>
<polygon fill="#fb8072" stroke="transparent" points="449,-10 449,-30 469,-30 469,-10 449,-10"/>
<text text-anchor="start" x="472.7258" y="-15.4" font-family="sans-serif" font-size="14.00" fill="#000000"> &#160;Exports</text>
<g id="clust1" class="cluster">
<title>cluster_ItemsModule</title>
<polygon fill="none" stroke="#000000" stroke-dasharray="1,5" points="8,-70 8,-268 574,-268 574,-70 8,-70"/>
</g>
<g id="clust2" class="cluster">
<title>cluster_ItemsModule_declarations</title>
<polygon fill="none" stroke="#000000" points="286,-78 286,-130 566,-130 566,-78 286,-78"/>
</g>
<g id="clust5" class="cluster">
<title>cluster_ItemsModule_imports</title>
<polygon fill="none" stroke="#000000" points="16,-78 16,-130 278,-130 278,-78 16,-78"/>
</g>
<g id="clust6" class="cluster">
<title>cluster_ItemsModule_exports</title>
<polygon fill="none" stroke="#000000" points="204,-208 204,-260 364,-260 364,-208 204,-208"/>
</g>
<!-- ListeItemsComponent -->
<g id="node1" class="node">
<title>ListeItemsComponent</title>
<polygon fill="#ffffb3" stroke="#000000" points="558.427,-122 417.573,-122 417.573,-86 558.427,-86 558.427,-122"/>
<text text-anchor="middle" x="488" y="-99.8" font-family="Times,serif" font-size="14.00" fill="#000000">ListeItemsComponent</text>
</g>
<!-- ItemsModule -->
<g id="node3" class="node">
<title>ItemsModule</title>
<polygon fill="#8dd3c7" stroke="#000000" points="329.1515,-187 326.1515,-191 305.1515,-191 302.1515,-187 238.8485,-187 238.8485,-151 329.1515,-151 329.1515,-187"/>
<text text-anchor="middle" x="284" y="-164.8" font-family="Times,serif" font-size="14.00" fill="#000000">ItemsModule</text>
</g>
<!-- ListeItemsComponent&#45;&gt;ItemsModule -->
<g id="edge1" class="edge">
<title>ListeItemsComponent&#45;&gt;ItemsModule</title>
<path fill="none" stroke="#000000" d="M488,-122.1061C488,-141.3391 488,-169 488,-169 488,-169 339.2742,-169 339.2742,-169"/>
<polygon fill="#000000" stroke="#000000" points="339.2742,-165.5001 329.2742,-169 339.2742,-172.5001 339.2742,-165.5001"/>
</g>
<!-- AddComponent -->
<g id="node2" class="node">
<title>AddComponent</title>
<polygon fill="#ffffb3" stroke="#000000" points="399.9399,-122 294.0601,-122 294.0601,-86 399.9399,-86 399.9399,-122"/>
<text text-anchor="middle" x="347" y="-99.8" font-family="Times,serif" font-size="14.00" fill="#000000">AddComponent</text>
</g>
<!-- AddComponent&#45;&gt;ItemsModule -->
<g id="edge2" class="edge">
<title>AddComponent&#45;&gt;ItemsModule</title>
<path fill="none" stroke="#000000" d="M311.803,-122.1061C311.803,-122.1061 311.803,-140.991 311.803,-140.991"/>
<polygon fill="#000000" stroke="#000000" points="308.303,-140.9909 311.803,-150.991 315.303,-140.991 308.303,-140.9909"/>
</g>
<!-- ListeItemsComponent  -->
<g id="node6" class="node">
<title>ListeItemsComponent </title>
<polygon fill="#fb8072" stroke="#000000" points="355.9264,-252 212.0736,-252 212.0736,-216 355.9264,-216 355.9264,-252"/>
<text text-anchor="middle" x="284" y="-229.8" font-family="Times,serif" font-size="14.00" fill="#000000">ListeItemsComponent </text>
</g>
<!-- ItemsModule&#45;&gt;ListeItemsComponent  -->
<g id="edge5" class="edge">
<title>ItemsModule&#45;&gt;ListeItemsComponent </title>
<path fill="none" stroke="#000000" stroke-dasharray="5,2" d="M284,-187.1061C284,-187.1061 284,-205.991 284,-205.991"/>
<polygon fill="#000000" stroke="#000000" points="280.5001,-205.9909 284,-215.991 287.5001,-205.991 280.5001,-205.9909"/>
</g>
<!-- SharedModule -->
<g id="node4" class="node">
<title>SharedModule</title>
<polygon fill="#8dd3c7" stroke="#000000" points="270.4231,-122 267.4231,-126 246.4231,-126 243.4231,-122 171.5769,-122 171.5769,-86 270.4231,-86 270.4231,-122"/>
<text text-anchor="middle" x="221" y="-99.8" font-family="Times,serif" font-size="14.00" fill="#000000">SharedModule</text>
</g>
<!-- SharedModule&#45;&gt;ItemsModule -->
<g id="edge3" class="edge">
<title>SharedModule&#45;&gt;ItemsModule</title>
<path fill="none" stroke="#000000" d="M254.4429,-122.1061C254.4429,-122.1061 254.4429,-140.991 254.4429,-140.991"/>
<polygon fill="#000000" stroke="#000000" points="250.9429,-140.9909 254.4429,-150.991 257.9429,-140.991 250.9429,-140.9909"/>
</g>
<!-- ItemRoutingModule -->
<g id="node5" class="node">
<title>ItemRoutingModule</title>
<polygon fill="#8dd3c7" stroke="#000000" points="154.3244,-122 151.3244,-126 130.3244,-126 127.3244,-122 23.6756,-122 23.6756,-86 154.3244,-86 154.3244,-122"/>
<text text-anchor="middle" x="89" y="-99.8" font-family="Times,serif" font-size="14.00" fill="#000000">ItemRoutingModule</text>
</g>
<!-- ItemRoutingModule&#45;&gt;ItemsModule -->
<g id="edge4" class="edge">
<title>ItemRoutingModule&#45;&gt;ItemsModule</title>
<path fill="none" stroke="#000000" d="M89,-122.1061C89,-141.3391 89,-169 89,-169 89,-169 228.7729,-169 228.7729,-169"/>
<polygon fill="#000000" stroke="#000000" points="228.773,-172.5001 238.7729,-169 228.7729,-165.5001 228.773,-172.5001"/>
</g>
</g>
</svg>
